<svg xmlns="http://www.w3.org/2000/svg" xmlns:xlink="http://www.w3.org/1999/xlink" fill="none" version="1.1" width="17.328018188476562" height="16.587726593017578" viewBox="0 0 17.328018188476562 16.587726593017578"><g><path d="M9.65963,1.51553C8.31664,1.24839,6.92446,1.38493,5.65921,1.90788C4.39394,2.43084,3.31246,3.31671,2.55155,4.45343C1.79065,5.59013,1.38451,6.92664,1.38451,8.29386C1.38451,9.66108,1.79065,10.9976,2.55155,12.1343C3.31246,13.271,4.39394,14.1569,5.65921,14.6798C6.92446,15.2028,8.31664,15.3393,9.65963,15.0722C11.0026,14.8051,12.2361,14.1462,13.204,13.1791C13.4742,12.9091,13.9125,12.9089,14.183,13.1787C14.4534,13.4485,14.4536,13.8861,14.1834,14.1561C13.0219,15.3167,11.5417,16.1073,9.93014,16.4279C8.31857,16.7484,6.64795,16.5846,5.12964,15.957C3.61133,15.3295,2.31355,14.2664,1.40046,12.9024C0.487371,11.5383,0,9.93451,0,8.29386C0,6.65321,0.487371,5.04941,1.40046,3.68533C2.31355,2.32127,3.61133,1.25823,5.12964,0.63069C6.64795,0.00314519,8.31857,-0.160706,9.93014,0.159864C11.5416,0.480398,13.0216,1.27085,14.183,2.43124C14.1831,2.43136,14.1829,2.43111,14.183,2.43124C14.183,2.43124,17.1245,5.35948,17.1245,5.35948C17.3953,5.62898,17.3959,6.06658,17.126,6.3369C16.856,6.60723,16.4177,6.60787,16.147,6.33833C16.147,6.33833,13.204,3.40866,13.204,3.40866C12.2361,2.44149,11.0026,1.78267,9.65963,1.51553C9.65963,1.51553,9.65963,1.51553,9.65963,1.51553Z" fill-rule="evenodd" fill="#A0A7BA" fill-opacity="1"/></g></svg>